<svg width="553" height="898" viewBox="0 0 553 898" fill="none" xmlns="http://www.w3.org/2000/svg">
<path fill-rule="evenodd" clip-rule="evenodd" d="M16.6419 54.5119C11.1907 51.4834 0.28833 42.1559 0.28833 29.073C0.28833 12.7194 3.92246 0 29.3613 0H534.505C540.562 0.605688 552.675 6.90484 552.675 27.2559C552.675 47.607 540.562 53.9062 534.505 54.5119C536.928 98.1214 525.42 203.511 460.005 276.194C394.591 348.876 344.319 407.022 327.36 427.01C321.303 434.884 312.823 454.993 327.36 472.436C330.396 476.08 336.884 483.327 345.686 493.16C389.553 542.163 490.905 655.382 509.066 706.837C530.871 768.618 538.139 835.849 536.322 846.751C541.773 849.78 552.675 859.471 552.675 874.007C552.675 888.544 538.139 898.235 530.871 901.263H22.0931C14.8248 898.84 0.28833 889.997 0.28833 874.007C0.28833 858.017 12.4021 849.174 18.459 846.751C18.459 800.719 34.8125 689.757 100.227 614.167C165.641 538.577 211.068 489.396 225.604 474.253C231.055 464.562 237.96 440.819 221.97 423.376C201.982 401.571 80.2391 265.291 65.7026 236.218C64.1902 233.193 62.4615 229.893 60.5777 226.297C44.3559 195.33 16.6419 142.425 16.6419 54.5119ZM32.9963 63.5972H519.969C521.18 103.573 503.252 206.055 421.848 296.181C340.443 386.307 315.247 413.685 312.824 416.107C305.556 429.432 296.107 462.261 316.458 486.973C322.171 493.91 332.926 505.614 346.395 520.272C392.898 570.881 471.763 656.707 487.262 703.203C491.849 716.963 495.478 726.992 498.481 735.286C508.562 763.138 511.569 771.444 519.969 835.849H34.8134C31.7849 797.085 47.5328 696.298 134.752 603.265C221.971 510.231 244.987 476.07 245.593 470.619C249.832 457.9 251.771 425.919 225.605 399.754C192.898 367.047 82.057 247.12 63.8864 192.609C60.1116 181.284 56.572 171.371 53.3329 162.3C40.98 127.704 32.9963 105.345 32.9963 63.5972Z" fill="url(#paint0_linear)" fill-opacity="0.08"/>
<path d="M465.457 210.779H87.5077C92.959 236.218 187.446 339.79 218.336 372.498C249.226 405.205 254.677 419.741 260.129 445.18C265.58 470.619 252.86 506.96 247.409 548.753C241.982 590.361 211.339 633.771 189.551 664.636L189.263 665.045C167.458 695.935 125.666 708.654 85.6907 726.825C53.7104 741.361 48.138 798.296 49.3494 824.946H503.615C507.249 792.239 487.262 728.642 450.92 719.557C414.579 710.471 400.043 697.752 350.982 654.142C301.921 610.533 291.019 463.351 292.836 430.644C294.653 397.937 361.884 341.608 392.774 307.083C417.486 279.464 451.526 231.372 465.457 210.779Z" fill="url(#paint1_linear)" fill-opacity="0.08"/>
<defs>
<linearGradient id="paint0_linear" x1="552.676" y1="1.98478e-05" x2="9.37375" y2="901.263" gradientUnits="userSpaceOnUse">
<stop stop-color="#B940FC"/>
<stop offset="1" stop-color="#7531C9"/>
</linearGradient>
<linearGradient id="paint1_linear" x1="545.407" y1="5.45098" x2="14.8251" y2="893.995" gradientUnits="userSpaceOnUse">
<stop stop-color="#B940FC"/>
<stop offset="1" stop-color="#7531C9"/>
</linearGradient>
</defs>
</svg>
