<svg width="52" height="53" viewBox="0 0 52 53" fill="none" xmlns="http://www.w3.org/2000/svg">
<path d="M11.629 21.5644C12.6623 18.4384 14.6563 15.7185 17.3268 13.7928C19.9972 11.8671 23.2076 10.8339 26.4999 10.8407C30.232 10.8407 33.6064 12.1657 36.2564 14.3343L43.9679 6.625C39.2685 2.52854 33.2464 0 26.4999 0C16.0545 0 7.0622 5.95808 2.73828 14.6854L11.629 21.5644Z" fill="#EA4335"/>
<path d="M35.4216 39.7787C33.0146 41.3312 29.9582 42.1593 26.5 42.1593C23.2208 42.166 20.0225 41.1411 17.358 39.2296C14.6935 37.3181 12.6978 34.617 11.6534 31.5085L2.73169 38.2815C4.92069 42.712 8.30832 46.4399 12.5098 49.0417C16.7113 51.6434 21.5582 53.0148 26.5 53C32.977 53 39.1648 50.6967 43.8001 46.375L35.4239 39.7787H35.4216Z" fill="#34A853"/>
<path d="M43.8001 46.375C48.6474 41.8523 51.7943 35.1213 51.7943 26.5C51.7943 24.9321 51.5535 23.2471 51.1936 21.6814H26.5V31.9215H40.7128C40.0128 35.3643 38.1291 38.0297 35.4239 39.7787L43.8001 46.375Z" fill="#4A90E2"/>
<path d="M11.6536 31.5085C11.1134 29.894 10.8389 28.2025 10.841 26.5C10.841 24.7731 11.117 23.1146 11.6293 21.5644L2.73859 14.6854C0.919758 18.3572 -0.0178432 22.4025 0.00025717 26.5C0.00025717 30.74 0.982966 34.7371 2.73197 38.2815L11.6536 31.5085Z" fill="#FBBC05"/>
</svg>
