<svg width="29" height="29" viewBox="0 0 29 29" fill="none" xmlns="http://www.w3.org/2000/svg">
<path d="M26.5834 24.1667V14.7103C26.5834 14.0524 26.4492 13.4014 26.1888 12.7971C25.9285 12.1929 25.5475 11.6482 25.0693 11.1964L16.1603 2.77676C15.7116 2.35255 15.1175 2.11618 14.5 2.11618C13.8825 2.11618 13.2885 2.35255 12.8398 2.77676L3.93073 11.1964C3.4525 11.6482 3.07155 12.1929 2.81121 12.7971C2.55086 13.4014 2.41662 14.0524 2.41669 14.7103V24.1667C2.41669 24.8076 2.6713 25.4223 3.12451 25.8755C3.57773 26.3287 4.19241 26.5833 4.83335 26.5833H24.1667C24.8076 26.5833 25.4223 26.3287 25.8755 25.8755C26.3287 25.4223 26.5834 24.8076 26.5834 24.1667Z" stroke="white" stroke-width="2" stroke-linecap="round" stroke-linejoin="round"/>
</svg>
