<svg width="21" height="22" viewBox="0 0 21 22" fill="none" xmlns="http://www.w3.org/2000/svg">
<path d="M11.3494 9.58466C10.663 8.83413 9.73226 8.41251 8.76177 8.41251C7.79129 8.41251 6.86053 8.83413 6.17414 9.58466L3.58568 12.4153C2.89928 13.1662 2.51367 14.1846 2.51367 15.2465C2.51367 16.3083 2.89928 17.3267 3.58568 18.0776C4.27207 18.8284 5.20302 19.2503 6.17373 19.2503C7.14443 19.2503 8.07538 18.8284 8.76177 18.0776L10.0556 16.6622" stroke="white" stroke-width="2" stroke-linecap="round" stroke-linejoin="round"/>
<path d="M8.76172 12.4153C9.4481 13.1659 10.3789 13.5875 11.3493 13.5875C12.3198 13.5875 13.2506 13.1659 13.937 12.4153L16.5254 9.58467C17.2118 8.83381 17.5975 7.81542 17.5975 6.75354C17.5975 5.69166 17.2118 4.67328 16.5254 3.92242C15.8391 3.17155 14.9081 2.74973 13.9374 2.74973C12.9667 2.74973 12.0357 3.17155 11.3493 3.92242L10.0555 5.33775" stroke="white" stroke-width="2" stroke-linecap="round" stroke-linejoin="round"/>
</svg>
