<svg width="152" height="248" viewBox="0 0 152 248" fill="none" xmlns="http://www.w3.org/2000/svg">
<path fill-rule="evenodd" clip-rule="evenodd" d="M4.5 15C3 14.1667 0 11.6 0 8C0 3.5 1 0 8 0H147C148.667 0.166667 152 1.9 152 7.5C152 13.1 148.667 14.8333 147 15C147.667 27 144.5 56 126.5 76C108.5 96 94.6667 112 90 117.5C88.3333 119.667 86 125.2 90 130C90.8356 131.003 92.6208 132.997 95.0428 135.703C107.114 149.187 135.003 180.341 140 194.5C146 211.5 148 230 147.5 233C149 233.833 152 236.5 152 240.5C152 244.5 148 247.167 146 248H6C4 247.333 0 244.9 0 240.5C0 236.1 3.33333 233.667 5 233C5 220.333 9.5 189.8 27.5 169C45.5 148.2 58 134.667 62 130.5C63.5 127.833 65.4 121.3 61 116.5C55.5 110.5 22 73 18 65C17.5838 64.1677 17.1081 63.2596 16.5898 62.2701C12.1261 53.7489 4.5 39.1909 4.5 15ZM9 17.5H143C143.333 28.5 138.4 56.7 116 81.5C93.6 106.3 86.6667 113.833 86 114.5C84 118.167 81.4 127.2 87 134C88.5721 135.909 91.5314 139.13 95.2377 143.163C108.034 157.089 129.735 180.706 134 193.5C135.262 197.286 136.261 200.046 137.087 202.328C139.861 209.992 140.688 212.278 143 230H9.5C8.66667 219.333 13 191.6 37 166C61 140.4 67.3333 131 67.5 129.5C68.6667 126 69.2 117.2 62 110C53 101 22.5 68 17.5 53C16.4613 49.8839 15.4873 47.1562 14.596 44.6599C11.1969 35.1403 9 28.9877 9 17.5Z" fill="url(#paint0_linear)"/>
<path d="M128 58H23.9999C25.4999 65 51.4999 93.5 59.9999 102.5C68.4999 111.5 69.9999 115.5 71.4999 122.5C72.9999 129.5 69.4999 139.5 67.9999 151C66.5065 162.449 58.0745 174.394 52.0792 182.888L51.9999 183C45.9999 191.5 34.4999 195 23.4999 200C14.6999 204 13.1666 219.667 13.4999 227H138.5C139.5 218 134 200.5 124 198C114 195.5 110 192 96.4999 180C82.9999 168 79.9999 127.5 80.4999 118.5C80.9999 109.5 99.4999 94 108 84.5C114.8 76.9 124.167 63.6667 128 58Z" fill="url(#paint1_linear)"/>
<defs>
<linearGradient id="paint0_linear" x1="152" y1="5.46152e-06" x2="2.5" y2="248" gradientUnits="userSpaceOnUse">
<stop stop-color="#B940FC"/>
<stop offset="1" stop-color="#7531C9"/>
</linearGradient>
<linearGradient id="paint1_linear" x1="150" y1="1.5" x2="3.99988" y2="246" gradientUnits="userSpaceOnUse">
<stop stop-color="#B940FC"/>
<stop offset="1" stop-color="#7531C9"/>
</linearGradient>
</defs>
</svg>