<svg width="29" height="29" viewBox="0 0 29 29" fill="none" xmlns="http://www.w3.org/2000/svg">
<path d="M15.875 3C12.5436 3 9.83333 5.71029 9.83333 9.04167C9.83333 12.373 12.5436 15.0833 15.875 15.0833C19.2064 15.0833 21.9167 12.373 21.9167 9.04167C21.9167 5.71029 19.2064 3 15.875 3ZM15.875 12.6667C13.8764 12.6667 12.25 11.0402 12.25 9.04167C12.25 7.04308 13.8764 5.41667 15.875 5.41667C17.8736 5.41667 19.5 7.04308 19.5 9.04167C19.5 11.0402 17.8736 12.6667 15.875 12.6667ZM26.75 25.9583V24.75C26.75 20.087 22.9546 16.2917 18.2917 16.2917H13.4583C8.79417 16.2917 5 20.087 5 24.75V25.9583H7.41667V24.75C7.41667 21.4186 10.127 18.7083 13.4583 18.7083H18.2917C21.623 18.7083 24.3333 21.4186 24.3333 24.75V25.9583H26.75Z" fill="white"/>
</svg>
