<svg width="146" height="98" viewBox="0 0 146 98" fill="none" xmlns="http://www.w3.org/2000/svg">
<path d="M145.292 79.6004C145.292 84.1004 139.812 86.3101 136.691 83.0688L76.3934 20.4598C74.4267 18.4177 71.1573 18.4177 69.1906 20.4598L8.8934 83.0688C5.77182 86.3101 0.291992 84.1004 0.291992 79.6004V78.8134C0.291992 77.56 0.762772 76.3523 1.61105 75.4296L69.1111 2.00407C71.092 -0.150749 74.492 -0.150749 76.4729 2.00407L143.973 75.4296C144.821 76.3523 145.292 77.56 145.292 78.8134V79.6004Z" fill="#1A1C24" fill-opacity="0.17"/>
<path d="M131.28 92.6361C131.28 97.1312 125.811 99.3432 122.686 96.1117L76.3747 48.2173C74.4094 46.1848 71.1511 46.1848 69.1858 48.2173L22.8747 96.1117C19.75 99.3432 14.2803 97.1313 14.2803 92.6361V91.7089C14.2803 90.4572 14.7498 89.251 15.596 88.3287L69.096 30.0157C71.0774 27.856 74.4831 27.856 76.4646 30.0157L129.965 88.3287C130.811 89.251 131.28 90.4572 131.28 91.7089V92.6361Z" fill="#1A1C24" fill-opacity="0.17"/>
</svg>
