<svg width="145" height="98" viewBox="0 0 145 98" fill="none" xmlns="http://www.w3.org/2000/svg">
<path d="M0 18.3996C0 13.8996 5.47982 11.6899 8.6014 14.9312L68.8986 77.5402C70.8653 79.5823 74.1347 79.5823 76.1014 77.5402L136.399 14.9312C139.52 11.6899 145 13.8996 145 18.3996V19.1866C145 20.44 144.529 21.6477 143.681 22.5704L76.1809 95.9959C74.2 98.1507 70.8 98.1507 68.8191 95.9959L1.31906 22.5704C0.470774 21.6477 0 20.44 0 19.1866V18.3996Z" fill="#D1D1D4" fill-opacity="0.31"/>
<path d="M14 5.3639C14 0.868751 19.4698 -1.34324 22.5944 1.88827L68.9055 49.7827C70.8709 51.8152 74.1291 51.8152 76.0944 49.7827L122.406 1.88829C125.53 -1.34323 131 0.868748 131 5.3639V6.29112C131 7.54283 130.531 8.74901 129.684 9.67134L76.1843 67.9843C74.2028 70.144 70.7971 70.144 68.8157 67.9843L15.3157 9.67134C14.4695 8.74901 14 7.54283 14 6.29112V5.3639Z" fill="#D1D1D4" fill-opacity="0.31"/>
</svg>
