<svg width="64" height="64" viewBox="0 0 64 64" fill="none" xmlns="http://www.w3.org/2000/svg">
<path fill-rule="evenodd" clip-rule="evenodd" d="M32 64C49.6731 64 64 49.6731 64 32C64 14.3269 49.6731 0 32 0C14.3269 0 0 14.3269 0 32C0 49.6731 14.3269 64 32 64ZM41.439 43.5718C41.3829 43.3829 41.2901 43.207 41.166 43.054V43.056C41.0419 42.9027 40.8888 42.7754 40.7154 42.6814C40.6337 42.6371 40.5483 42.6006 40.4603 42.5722C40.3615 42.5403 40.2593 42.5188 40.1556 42.508C39.9595 42.4875 39.7612 42.506 39.5721 42.5623C39.3831 42.6186 39.207 42.7116 39.054 42.836L32 48.568L24.946 42.836C24.7934 42.7097 24.6172 42.6147 24.4278 42.5569C24.2383 42.499 24.0392 42.4791 23.842 42.4986C23.6448 42.5181 23.4535 42.5764 23.279 42.6702C23.1045 42.7641 22.9503 42.8915 22.8253 43.0453C22.7004 43.1991 22.6071 43.3761 22.5509 43.5661C22.4948 43.7561 22.4767 43.9553 22.498 44.1523C22.5193 44.3493 22.5794 44.5402 22.6748 44.7138C22.7703 44.8875 22.8991 45.0405 23.054 45.164L31.054 51.664C31.3214 51.8813 31.6555 51.9999 32 51.9999C32.3445 51.9999 32.6786 51.8813 32.946 51.664L40.946 45.164C41.0073 45.1143 41.0644 45.06 41.1169 45.0016C41.1954 44.9141 41.2637 44.8176 41.3199 44.7137C41.4138 44.5405 41.4726 44.3505 41.493 44.1546C41.5135 43.9586 41.4951 43.7606 41.439 43.5718ZM20.34 28.04C19.766 27.326 18.938 26.97 17.852 26.97C16.768 26.97 15.938 27.33 15.36 28.05C14.784 28.77 14.496 29.824 14.498 31.214V33.046C14.51 34.382 14.804 35.408 15.378 36.122C15.952 36.838 16.782 37.196 17.868 37.196C18.964 37.196 19.798 36.832 20.368 36.104C20.938 35.374 21.222 34.32 21.222 32.944V31.112C21.208 29.778 20.916 28.752 20.34 28.04ZM28.374 28.04C27.798 27.326 26.97 26.97 25.884 26.97C24.8 26.97 23.97 27.33 23.394 28.05C22.816 28.77 22.53 29.824 22.53 31.214V33.046C22.542 34.382 22.836 35.408 23.41 36.122C23.984 36.838 24.814 37.196 25.9 37.196C26.996 37.196 27.83 36.832 28.4 36.104C28.97 35.374 29.254 34.32 29.254 32.944V31.112C29.242 29.778 28.948 28.752 28.374 28.04ZM40.356 28.04C39.782 27.326 38.952 26.97 37.868 26.97C36.784 26.97 35.952 27.33 35.376 28.05C34.8 28.77 34.512 29.824 34.512 31.214V33.046C34.526 34.382 34.82 35.408 35.394 36.122C35.968 36.838 36.798 37.196 37.882 37.196C38.98 37.196 39.814 36.832 40.384 36.104C40.954 35.374 41.238 34.32 41.238 32.944V31.112C41.224 29.778 40.93 28.752 40.356 28.04ZM48.388 28.04C47.814 27.326 46.986 26.97 45.9 26.97C44.816 26.97 43.986 27.33 43.408 28.05C42.832 28.77 42.544 29.824 42.544 31.214V33.046C42.558 34.382 42.852 35.408 43.426 36.122C44 36.838 44.83 37.196 45.914 37.196C47.012 37.196 47.846 36.832 48.416 36.104C48.986 35.374 49.27 34.32 49.27 32.944V31.112C49.256 29.778 48.962 28.752 48.388 28.04ZM32.804 34.294C32.592 34.098 32.324 34 32 34C31.7072 33.9912 31.4225 34.0966 31.206 34.294C30.992 34.49 30.886 34.746 30.886 35.06C30.8813 35.201 30.9071 35.3414 30.9616 35.4716C30.9899 35.5391 31.0256 35.603 31.0679 35.6622C31.1071 35.7172 31.152 35.7681 31.202 35.814C31.4205 36.0118 31.7075 36.1165 32.002 36.106C32.2982 36.1176 32.5872 36.0136 32.808 35.816C32.9117 35.7201 32.9935 35.6028 33.0477 35.4724C33.1019 35.3419 33.1273 35.2012 33.122 35.06C33.1273 34.917 33.1016 34.7745 33.0468 34.6423C32.9918 34.5101 32.9091 34.3912 32.804 34.294ZM16.824 29.106C17.044 28.75 17.388 28.57 17.852 28.57C18.332 28.57 18.684 28.758 18.908 29.134C19.134 29.51 19.248 30.11 19.248 30.934V33.3C19.238 34.08 19.126 34.656 18.912 35.036C18.698 35.414 18.35 35.604 17.866 35.604C17.378 35.604 17.024 35.406 16.804 35.012C16.582 34.618 16.472 34.016 16.472 33.206V30.786C16.484 30.024 16.604 29.464 16.824 29.106ZM24.856 29.106C25.076 28.75 25.42 28.57 25.884 28.57C26.364 28.57 26.716 28.758 26.94 29.134C27.166 29.51 27.28 30.11 27.28 30.934V33.3C27.27 34.08 27.158 34.656 26.944 35.036C26.73 35.414 26.382 35.604 25.898 35.604C25.41 35.604 25.056 35.406 24.836 35.012C24.614 34.618 24.504 34.016 24.504 33.206V30.786C24.516 30.024 24.636 29.464 24.856 29.106ZM36.84 29.106C37.06 28.75 37.404 28.57 37.868 28.57C38.346 28.57 38.698 28.758 38.924 29.134C39.15 29.51 39.262 30.11 39.262 30.934V33.3C39.254 34.08 39.142 34.656 38.928 35.036C38.714 35.414 38.364 35.604 37.882 35.604C37.394 35.604 37.038 35.406 36.818 35.012C36.598 34.618 36.488 34.016 36.488 33.206V30.786C36.5 30.024 36.62 29.464 36.84 29.106ZM44.872 29.106C45.092 28.75 45.436 28.57 45.9 28.57C46.378 28.57 46.73 28.758 46.956 29.134C47.182 29.51 47.296 30.11 47.296 30.934V33.3L47.28 33.672C47.246 34.266 47.14 34.72 46.96 35.036C46.746 35.414 46.398 35.604 45.914 35.604C45.426 35.604 45.072 35.406 44.85 35.012C44.63 34.618 44.52 34.016 44.52 33.204V30.784L44.534 30.42C44.576 29.842 44.688 29.404 44.872 29.106ZM32.804 28.694C32.592 28.498 32.324 28.4 32 28.4C31.7072 28.3912 31.4225 28.4966 31.206 28.694C30.992 28.89 30.886 29.144 30.886 29.458C30.881 29.5994 30.9067 29.7401 30.9612 29.8706C31.0157 30.0011 31.0979 30.1183 31.202 30.214C31.4208 30.4111 31.7078 30.5151 32.002 30.504C32.2982 30.5156 32.5872 30.4116 32.808 30.214C32.9117 30.1181 32.9935 30.0009 33.0477 29.8704C33.1019 29.7399 33.1273 29.5992 33.122 29.458C33.127 29.3153 33.1012 29.1732 33.0463 29.0413C32.9915 28.9095 32.9088 28.791 32.804 28.694ZM31.058 12.336L23.058 18.836H23.054L22.894 18.988C22.6402 19.2677 22.5013 19.6328 22.5049 20.0104C22.5085 20.3881 22.6544 20.7504 22.9135 21.0251C23.1726 21.2999 23.5258 21.4669 23.9026 21.4926C24.2794 21.5183 24.652 21.401 24.946 21.164L32 15.432L39.058 21.164L39.24 21.292C39.566 21.4841 39.9525 21.5458 40.322 21.465C40.6916 21.3842 41.017 21.1667 41.233 20.8561C41.449 20.5455 41.5396 20.1647 41.4868 19.7902C41.434 19.4155 41.2415 19.0747 40.948 18.836L32.948 12.336L32.758 12.204C32.4948 12.0508 32.1911 11.9814 31.8875 12.0049C31.5837 12.0286 31.2945 12.144 31.058 12.336Z" fill="white"/>
</svg>
