<svg width="64" height="64" viewBox="0 0 64 64" fill="none" xmlns="http://www.w3.org/2000/svg">
<path fill-rule="evenodd" clip-rule="evenodd" d="M32 64C49.6731 64 64 49.6731 64 32C64 14.3269 49.6731 0 32 0C14.3269 0 0 14.3269 0 32C0 49.6731 14.3269 64 32 64ZM24.1875 16.6562V21.5312C24.1875 21.8545 24.3159 22.1645 24.5445 22.393C24.773 22.6216 25.083 22.75 25.4062 22.75C25.7295 22.75 26.0395 22.6216 26.268 22.393C26.4966 22.1645 26.625 21.8545 26.625 21.5312V16.6562C26.625 16.333 26.4966 16.023 26.268 15.7944C26.0395 15.5659 25.7295 15.4375 25.4062 15.4375C25.083 15.4375 24.773 15.5659 24.5445 15.7944C24.3159 16.023 24.1875 16.333 24.1875 16.6562ZM31.143 22.393C30.9145 22.6216 30.6045 22.75 30.2812 22.75C29.958 22.75 29.648 22.6216 29.4195 22.393C29.1909 22.1645 29.0625 21.8545 29.0625 21.5312V16.6562C29.0625 16.333 29.1909 16.023 29.4195 15.7944C29.648 15.5659 29.958 15.4375 30.2812 15.4375C30.6045 15.4375 30.9145 15.5659 31.143 15.7944C31.3716 16.023 31.5 16.333 31.5 16.6562V21.5312C31.5 21.8545 31.3716 22.1645 31.143 22.393ZM36.018 22.393C35.7895 22.6216 35.4795 22.75 35.1562 22.75C34.833 22.75 34.523 22.6216 34.2945 22.393C34.0659 22.1645 33.9375 21.8545 33.9375 21.5312V16.6562C33.9375 16.333 34.0659 16.023 34.2945 15.7944C34.523 15.5659 34.833 15.4375 35.1562 15.4375C35.4795 15.4375 35.7895 15.5659 36.018 15.7944C36.2466 16.023 36.375 16.333 36.375 16.6562V21.5312C36.375 21.8545 36.2466 22.1645 36.018 22.393ZM49.7812 32.5V31.2812C49.7794 29.6656 49.1368 28.1167 47.9944 26.9743C46.852 25.8319 45.3031 25.1893 43.6875 25.1875H16.875C16.5518 25.1875 16.2418 25.3159 16.0132 25.5444C15.7847 25.773 15.6562 26.083 15.6562 26.4062V33.7188C15.66 35.7936 16.1037 37.844 16.9581 39.7347C17.8125 41.6255 19.0582 43.3135 20.6129 44.6875H16.875C16.5518 44.6875 16.2418 44.8159 16.0132 45.0444C15.7847 45.273 15.6562 45.583 15.6562 45.9062C15.6562 46.2295 15.7847 46.5395 16.0132 46.768C16.2418 46.9966 16.5518 47.125 16.875 47.125H35.8607C35.8649 47.125 35.8692 47.1259 35.8735 47.1259C35.8791 47.1259 35.8849 47.125 35.8905 47.125H43.6875C44.0107 47.125 44.3207 46.9966 44.5493 46.768C44.7778 46.5395 44.9062 46.2295 44.9062 45.9062C44.9062 45.583 44.7778 45.273 44.5493 45.0444C44.3207 44.8159 44.0107 44.6875 43.6875 44.6875H39.9496C41.8173 43.0336 43.2341 40.9323 44.0671 38.5808C45.6138 38.4826 47.0651 37.7994 48.1264 36.67C49.1876 35.5407 49.7793 34.0497 49.7812 32.5ZM46.6716 29.1714C47.108 29.7885 47.3428 30.5255 47.3438 31.2812V32.5C47.3427 33.2887 47.087 34.056 46.6148 34.6877C46.1426 35.3194 45.4791 35.7817 44.723 36.006C44.8443 35.2496 44.9056 34.4848 44.9062 33.7188V27.8346C45.6185 28.0873 46.2352 28.5543 46.6716 29.1714Z" fill="white"/>
</svg>
