<svg width="64" height="64" viewBox="0 0 64 64" fill="none" xmlns="http://www.w3.org/2000/svg">
<path fill-rule="evenodd" clip-rule="evenodd" d="M32 64C49.6731 64 64 49.6731 64 32C64 14.3269 49.6731 0 32 0C14.3269 0 0 14.3269 0 32C0 49.6731 14.3269 64 32 64ZM40.75 16.25H33.75V19.75H40.75V16.25ZM23.25 25H16.25V28.5H23.25V25ZM23.25 39H16.25V42.5H23.25V39ZM21.4825 32H14.5V35.5H21.4825V32ZM46.5128 20.2628L48.9872 22.7372L46.2537 25.4725C48.3391 27.7248 49.4982 30.6806 49.5 33.75C49.5 40.5032 44.0032 46 37.25 46C30.4968 46 25 40.5032 25 33.75C25 26.9968 30.4968 21.5 37.25 21.5C39.4622 21.5007 41.6322 22.1058 43.5255 23.25L46.5128 20.2628ZM35.5 26.6765V35.5H39V26.6765H35.5Z" fill="white"/>
</svg>
